<?xml version="1.0" encoding="UTF-8" standalone="no"?>
<!-- Created with Inkscape (http://www.inkscape.org/) -->

<svg
   xmlns:dc="http://purl.org/dc/elements/1.1/"
   xmlns:cc="http://creativecommons.org/ns#"
   xmlns:rdf="http://www.w3.org/1999/02/22-rdf-syntax-ns#"
   xmlns:svg="http://www.w3.org/2000/svg"
   xmlns="http://www.w3.org/2000/svg"
   xmlns:sodipodi="http://sodipodi.sourceforge.net/DTD/sodipodi-0.dtd"
   xmlns:inkscape="http://www.inkscape.org/namespaces/inkscape"
   version="1.1"
   width="397.54688"
   height="54.140621"
   id="svg2"
   inkscape:version="0.48.4 r9939"
   sodipodi:docname="logo.svg"
   inkscape:export-filename="/home/tomi/Sinnwerkstatt/coinfarm/images/logo.png"
   inkscape:export-xdpi="905.54999"
   inkscape:export-ydpi="905.54999">
  <sodipodi:namedview
     pagecolor="#ffffff"
     bordercolor="#666666"
     borderopacity="1"
     objecttolerance="10"
     gridtolerance="10"
     guidetolerance="10"
     inkscape:pageopacity="0"
     inkscape:pageshadow="2"
     inkscape:window-width="640"
     inkscape:window-height="480"
     id="namedview15"
     showgrid="false"
     inkscape:zoom="0.80745195"
     inkscape:cx="198.77344"
     inkscape:cy="27.070311"
     inkscape:window-x="75"
     inkscape:window-y="34"
     inkscape:window-maximized="0"
     inkscape:current-layer="svg2" />
  <defs
     id="defs4" />
  <metadata
     id="metadata7">
    <rdf:RDF>
      <cc:Work
         rdf:about="">
        <dc:format>image/svg+xml</dc:format>
        <dc:type
           rdf:resource="http://purl.org/dc/dcmitype/StillImage" />
        <dc:title></dc:title>
      </cc:Work>
    </rdf:RDF>
  </metadata>
  <g
     transform="translate(-180.36964,-189.72219)"
     id="layer1">
    <g
       id="text2985"
       style="font-size:40px;font-style:normal;font-weight:normal;line-height:125%;letter-spacing:0px;word-spacing:0px;fill:#000000;fill-opacity:1;stroke:none;font-family:Sans">
      <path
         d="m 207.29933,190.14406 c -2.95312,0 -5.625,0.5625 -8.15625,1.6875 -2.53125,1.125 -4.71094,2.39062 -6.53906,3.86719 -1.82812,1.54687 -3.79688,3.65625 -5.83594,6.39843 -2.03906,2.8125 -3.58594,5.48438 -4.71094,8.08594 -1.12499,2.60156 -1.6875,5.83594 -1.6875,9.77344 0,3.16406 0.84376,6.25781 2.60157,9.35156 1.75781,3.09375 3.51562,5.41406 5.20312,6.96094 1.6875,1.61718 3.9375,3.16406 6.75,4.71094 2.8125,1.54687 5.83594,2.25 9,2.25 l 1.05469,0 c 3.02343,0 5.0625,0 6.04687,-0.14063 l 2.60157,-0.21094 c 1.26562,-0.14062 2.17968,-0.28125 2.8125,-0.5625 0.5625,-0.21093 1.33594,-0.49218 2.25,-0.91406 0.84375,-0.35156 1.61718,-0.84375 2.32031,-1.47656 0.70312,-0.5625 1.40625,-1.40625 2.17969,-2.39063 0.70312,-0.98437 1.125,-1.96875 1.125,-3.09375 0,-1.05468 -0.35157,-1.61718 -0.91407,-1.61718 l -0.21093,0 c -1.19531,0.21093 -3.23438,0.91406 -6.11719,2.03906 -2.95312,1.125 -5.34375,1.6875 -7.17188,1.6875 -0.42187,0 -0.98437,0 -1.6875,-0.14063 -2.88281,-0.28125 -5.27344,-0.98437 -7.17187,-1.96875 -1.96875,-0.98437 -3.72657,-2.53125 -5.41406,-4.64062 -2.95313,-3.58594 -4.42969,-7.52344 -4.42969,-11.8125 0,-0.98438 0.0703,-2.03907 0.21094,-3.16406 0.35156,-3.65625 1.125,-6.67969 2.39062,-9.21094 1.26563,-2.53125 3.23438,-4.85157 5.97656,-6.96094 2.88281,-2.32031 5.62501,-3.51562 8.29688,-3.51562 2.67187,0 4.92188,0.70312 6.75,1.96875 0.98437,0.70312 1.61719,1.19531 2.03906,1.61718 0.35156,0.42188 1.05469,1.33594 2.03906,2.74219 l 2.03907,2.8125 c 0.35156,0.49219 0.70312,1.54688 1.125,3.23438 0.35156,1.68749 1.125,2.95312 2.32031,3.72656 1.96875,-3.79687 2.95312,-6.67969 2.95312,-8.50781 0,-1.82813 -0.28125,-3.30469 -0.84375,-4.5 -0.5625,-1.19532 -1.125,-2.03907 -1.54687,-2.60157 -1.125,-1.26562 -3.72657,-2.60156 -7.73438,-4.00781 -2.24999,-0.84375 -4.64062,-1.33594 -7.17187,-1.40625 l -2.74219,-0.0703"
         id="path2990"
         style="font-size:72px;font-variant:normal;font-weight:500;font-stretch:normal;font-family:Essays1743;-inkscape-font-specification:Essays1743 Medium" />
      <path
         d="m 258.69777,190.98781 -0.28125,0 c -4.92187,0 -9.14063,0.91406 -12.65625,2.67187 -3.51562,1.82813 -6.89063,4.78126 -9.98438,8.92969 -3.16406,4.14843 -4.71093,8.92969 -4.71093,14.41406 0,2.10938 0.21093,4.78126 0.70312,7.94532 0.49219,3.23437 1.75782,6.04687 3.79688,8.50781 2.10937,2.53125 5.90625,5.27344 11.53125,8.08594 3.02343,1.54687 6.60938,2.32031 10.82812,2.32031 6.46875,0 11.32032,-2.39063 14.55469,-7.3125 l 2.25,-3.23438 c 1.05469,-1.47656 1.82812,-2.60156 2.39062,-3.44531 0.49219,-0.77344 1.05469,-1.82813 1.6875,-3.23437 0.5625,-1.40625 1.125,-3.44532 1.6875,-6.1875 0.5625,-2.8125 0.84375,-5.41407 0.84375,-7.94532 0,-4.42968 -1.26562,-8.36719 -3.72656,-11.88281 -2.39062,-3.44531 -5.13281,-5.90625 -8.22656,-7.38281 -3.02344,-1.47656 -6.60938,-2.25 -10.6875,-2.25 m -15.82031,25.80469 c 0.0703,-2.03906 0.14062,-3.51563 0.28125,-4.42969 0.0703,-0.91406 0.28125,-2.03907 0.70312,-3.44531 0.42188,-1.33594 0.98438,-2.67188 1.82813,-4.00782 0.77343,-1.33593 1.82812,-2.74219 3.09375,-4.28906 2.88281,-3.375 6.39844,-5.0625 10.6875,-5.0625 2.81249,0 5.625,1.26563 8.57812,3.79688 1.6875,1.47656 2.88281,3.02343 3.65625,4.64062 0.70313,1.61719 1.26563,3.51563 1.61719,5.625 0.35156,2.17969 0.5625,4.00781 0.5625,5.41406 0,3.09375 -0.70313,6.25782 -1.96875,9.5625 -1.33594,3.30469 -2.53125,5.76563 -3.58594,7.3125 -1.05468,1.54688 -2.60156,2.88282 -4.57031,4.00782 -1.96875,1.12499 -3.79688,1.61718 -5.41406,1.61718 -1.6875,0 -3.44532,-0.28125 -5.41407,-0.98437 -1.96874,-0.63281 -3.51562,-1.47657 -4.78125,-2.53125 -1.26562,-1.05469 -2.53125,-2.67188 -3.72656,-4.85156 -1.19531,-2.10938 -1.75781,-4.71094 -1.75781,-7.73438 l 0.21094,-4.64062"
         id="path2992"
         style="font-size:72px;font-variant:normal;font-weight:500;font-stretch:normal;font-family:Essays1743;-inkscape-font-specification:Essays1743 Medium" />
      <path
         d="m 289.63527,195.27687 c 1.05469,0 1.82812,0.35156 2.32031,0.98438 l -0.42187,26.01562 c 0,2.74219 0.0703,7.73438 0.28125,14.97656 -0.42188,0.42188 -0.91407,0.63282 -1.47657,0.63282 -0.5625,0 -1.33593,-0.14063 -2.46093,-0.42188 -1.125,-0.28125 -1.96875,-0.49219 -2.46094,-0.49219 -1.61719,0 -2.39063,0.84375 -2.39063,2.46094 0,0.70313 0.35157,1.40625 1.125,1.96875 6.32812,0.70313 9.77344,1.05469 10.33594,1.05469 0.49219,0 1.47657,0 2.88281,-0.14063 1.47657,-0.0703 4.64063,-0.14062 9.5625,-0.28125 0.84375,-0.5625 1.26563,-1.19531 1.26563,-1.89843 0,-0.70313 -0.21094,-1.26563 -0.5625,-1.82813 -0.35156,-0.5625 -0.98438,-0.84375 -1.89844,-0.84375 l -2.8125,0.21094 c -1.125,0 -1.89844,-0.35156 -2.32031,-1.05469 -0.14063,-3.86718 -0.21094,-8.36719 -0.21094,-13.42969 l 0,-4.42968 c 0,-6.82031 -0.28125,-14.5547 -0.84375,-23.20313 0.42188,-0.14062 0.91406,-0.28125 1.47656,-0.28125 0.5625,0 1.47657,0.21094 2.67188,0.49219 1.125,0.28125 2.03906,0.42187 2.74219,0.42187 0.70312,0 1.26562,-0.35156 1.6875,-1.05468 l 0.49218,-2.46094 c 0,-0.49219 -0.14062,-0.84375 -0.28125,-1.05469 -5.55468,-0.14062 -8.78906,-0.28125 -9.70312,-0.35156 l -0.77344,-0.0703 c -1.47656,-0.14063 -5.55469,-0.21094 -12.30469,-0.35157 -0.5625,0.5625 -0.84375,1.125 -0.84375,1.75782 0,0.70312 0.21094,1.33593 0.63282,1.89843 0.42187,0.63282 1.19531,0.91407 2.25,0.91407 l 2.03906,-0.14063"
         id="path2994"
         style="font-size:72px;font-variant:normal;font-weight:500;font-stretch:normal;font-family:Essays1743;-inkscape-font-specification:Essays1743 Medium" />
      <path
         d="m 317.47902,196.47218 c 0.84375,0 1.40625,0.21094 1.6875,0.5625 l -0.28125,26.08594 c 0,3.72656 0.0703,8.01563 0.28125,12.9375 -0.28125,0.28125 -0.70313,0.42188 -1.26563,0.42188 l -3.51562,-0.28125 c -1.26562,0 -2.10938,0.28125 -2.46094,0.77343 -0.35156,0.5625 -0.49219,0.98438 -0.49219,1.26563 0,0.35156 0.14063,0.84375 0.42188,1.54687 0.28125,0.70313 0.42187,1.26563 0.49219,1.61719 l 2.10937,0 c 1.6875,0 3.72657,-0.0703 6.1875,-0.21094 2.39062,-0.14062 4.42969,-0.28125 6.11719,-0.35156 0,-0.35156 0.14062,-0.91406 0.42187,-1.61719 0.28125,-0.70312 0.42188,-1.19531 0.42188,-1.54687 0,-1.05469 -0.5625,-1.61719 -1.61719,-1.61719 l -0.70312,0 c -0.84375,0 -1.40625,-0.28125 -1.54688,-0.84375 l 0,-1.96875 c 0,-2.8125 0.14063,-6.11719 0.42188,-9.91406 0.28125,-3.79687 0.42187,-6.96094 0.42187,-9.5625 0,-2.60156 -0.21094,-6.46876 -0.63281,-11.53125 l 28.61719,34.80469 c 1.125,1.61718 2.25,2.39062 3.30468,2.39062 l 0.28125,0 c 0.63282,-0.0703 1.26563,-0.42188 1.89844,-1.19531 0.14063,-0.21094 0.35156,-0.5625 0.63281,-1.05469 0.28125,-0.42187 0.42188,-0.70312 0.49219,-0.77344 0.21094,-3.93749 0.35156,-7.66406 0.35156,-11.32031 l -0.35156,-16.52344 c 0,-4.07812 0.0703,-8.50781 0.35156,-13.14843 l 2.8125,0.21093 c 0.42188,0 0.91407,-0.21093 1.40625,-0.63281 0.98438,-0.98437 1.47657,-1.89844 1.47657,-2.8125 0,-0.91406 -0.28125,-1.40625 -0.84375,-1.40625 -4.5,-0.28125 -7.52344,-0.42187 -9.07032,-0.42187 -1.61718,0 -3.86719,0.14062 -6.75,0.28125 0.14063,0.28125 0.21094,0.5625 0.21094,0.77343 l -0.63281,2.46094 c 0,0.42188 0.21094,0.77344 0.63281,1.19531 0.42188,0.42188 0.84375,0.63282 1.33594,0.63282 0.49219,0 1.26563,-0.14063 2.39062,-0.42188 1.05469,-0.28125 2.03907,-0.42187 2.88282,-0.42187 l -1.26563,30.79687 -5.83594,-7.875 -4.78125,-6.1875 -16.17187,-19.40625 c -3.44531,-0.91406 -5.97656,-1.40625 -7.59375,-1.40625 -1.61719,0 -3.51563,0.28125 -5.76563,0.84375 -1.96874,0.91406 -2.95312,1.89844 -2.95312,2.95313 0,0.14062 0,0.35156 0.14062,0.63281 0.28125,0.98437 1.26563,1.47656 2.95313,1.47656 l 3.375,-0.21094"
         id="path2996"
         style="font-size:72px;font-variant:normal;font-weight:500;font-stretch:normal;font-family:Essays1743;-inkscape-font-specification:Essays1743 Medium" />
      <path
         d="m 393.20558,213.06593 c 0,1.40625 -0.42187,2.39063 -1.26562,2.95313 -1.26563,0.28125 -2.25,0.42187 -2.8125,0.42187 -0.5625,0 -2.67188,-0.28125 -6.1875,-0.98437 -0.0703,-2.67187 -0.0703,-5.55469 -0.0703,-8.78906 0,-3.16406 0,-5.83594 0.0703,-8.01563 0.28125,-0.35156 0.77343,-0.5625 1.33593,-0.5625 l 1.05469,0.0703 c 0.28125,0 1.05469,-0.0703 2.32031,-0.35156 1.26563,-0.21094 2.74219,-0.35156 4.42969,-0.35156 1.6875,0 3.44532,0.21094 5.27344,0.49219 0.35156,0.5625 0.70312,0.91406 0.98437,1.05468 0.28125,0.21094 0.49219,0.42188 0.5625,0.5625 l 0.49219,2.03907 c 0,0.21093 0.0703,0.5625 0.0703,1.05468 0,0.5625 -0.28125,1.05469 -0.77343,1.47657 -0.49219,0.42187 -0.70313,0.70312 -0.70313,0.84375 0,0.14062 0.0703,0.28125 0.21094,0.42187 1.54687,0.14063 2.95313,0.28125 4.28906,0.35156 0.42188,0.0703 1.05469,0.0703 1.82813,0.0703 0.77343,0 2.32031,-0.35157 4.64062,-1.125 l 0.0703,-0.14063 0,-0.0703 c 0,-0.28125 -0.35156,-0.70313 -0.91406,-1.26563 -0.5625,-0.5625 -0.91406,-0.98437 -1.05469,-1.33593 -0.14062,-0.35157 -0.21093,-0.70313 -0.35156,-1.05469 -0.14062,-0.28125 -0.21094,-0.5625 -0.28125,-0.70313 -0.0703,-0.14062 -0.14062,-0.35156 -0.21094,-0.5625 -0.0703,-0.14062 -0.14062,-0.35156 -0.14062,-0.5625 0,-0.14062 -0.0703,-0.35156 -0.0703,-0.5625 0,-0.21093 0,-0.5625 0,-0.98437 0,-0.42188 -0.0703,-0.77344 -0.0703,-1.19531 0,-0.42188 -0.0703,-0.98438 -0.0703,-1.82813 0,-0.77344 -0.0703,-1.54688 -0.0703,-2.39062 -4.78125,-0.84375 -8.64844,-1.26563 -11.74219,-1.26563 l -14.83594,0.0703 -7.03125,0 c -1.68749,0.5625 -3.02343,1.19532 -3.9375,1.89844 -0.91406,0.70313 -1.40625,1.61719 -1.47656,2.88281 l 0,0.21094 c 0,1.125 0.77344,2.03906 2.39063,2.8125 0.42187,0.14063 0.70312,0.21094 0.84375,0.21094 0.14062,0 0.28125,0 0.42187,-0.0703 0.14063,-0.0703 0.35156,-0.21094 0.70313,-0.42188 0.35156,-0.14062 1.33594,-0.28125 3.02343,-0.28125 0.14063,4.92187 0.21094,9.98438 0.21094,15.25781 0,5.34375 -0.63281,13.85158 -1.75781,25.52344 -0.0703,0.49219 -0.35156,0.70313 -0.77344,0.70313 l -3.02344,-0.63282 c -0.28125,0 -0.49218,0.0703 -0.5625,0.0703 -0.14062,0.0703 -0.28125,0.14062 -0.49218,0.14062 -0.21094,0.0703 -0.35157,0.14063 -0.42188,0.14063 -0.0703,0.0703 -0.21094,0.14062 -0.35156,0.21093 -0.21094,0.0703 -0.35156,0.14063 -0.42188,0.14063 -0.0703,0.0703 -0.28125,0.21094 -0.5625,0.35156 -0.28125,0.14063 -0.42187,0.49219 -0.42187,1.05469 0,0.91406 0.84375,1.61719 2.60156,2.17969 l 25.03125,0 0.28125,-0.70313 c 0.5625,-1.40625 0.84375,-2.60156 0.84375,-3.65625 0,-0.5625 -0.28125,-0.91406 -0.77344,-0.91406 -0.35156,0 -0.70312,0.14062 -1.125,0.35156 -1.68749,0.14063 -2.95312,0.28125 -3.72656,0.49219 -0.77344,0.28125 -1.26562,0.35156 -1.54687,0.35156 -0.28125,0 -1.47657,-0.21094 -3.58594,-0.77344 -1.125,-0.28125 -1.96875,-0.91406 -2.39063,-1.96875 0,-3.23437 0,-5.69531 0.14063,-7.24218 0.14062,-1.54688 0.49219,-3.72657 1.05469,-6.53907 0.42187,-0.84375 1.125,-1.33593 2.17968,-1.61718 0.98438,-0.28125 1.89844,-0.42188 2.67188,-0.42188 0.70312,0 1.54688,0.21094 2.53125,0.49219 0.91406,0.28125 1.61719,0.49219 2.17969,0.63281 0.5625,0.14063 0.91406,0.28125 1.05468,0.35156 0.14063,0.0703 0.42188,0.21094 0.70313,0.42188 0.28125,0.21094 0.49219,0.49219 0.63281,0.84375 0.14063,0.35156 0.28125,0.63281 0.28125,0.77344 0,0.14062 -0.21094,0.49218 -0.49219,1.05468 -0.35156,0.5625 -0.49218,1.19532 -0.49218,1.89844 0,0.70313 0,1.19531 0.14062,1.54688 0.84375,0.98437 1.54688,1.47656 2.10938,1.47656 0.5625,0 1.54687,-0.28125 2.95312,-0.84375 -0.21094,-11.10937 -0.28125,-17.85938 -0.28125,-20.39063 -0.70312,-0.70312 -1.47656,-1.125 -2.25,-1.125 -0.77344,0 -1.40625,0.21094 -1.89844,0.49219 -0.84374,0.5625 -1.26562,1.54688 -1.26562,2.95313 l 0.0703,1.89843"
         id="path2998"
         style="font-size:72px;font-variant:normal;font-weight:500;font-stretch:normal;font-family:Essays1743;-inkscape-font-specification:Essays1743 Medium" />
      <path
         d="m 417.04152,233.38625 c -0.42188,0 -0.91406,0.14062 -1.33594,0.35156 -2.60156,1.54687 -3.86719,3.375 -3.86719,5.48437 0,0.5625 0.28125,1.19532 0.98438,1.89844 0.28125,0.35156 0.5625,0.63281 0.70312,0.84375 0.84375,0.70313 1.47657,0.98438 1.89844,0.98438 0.35156,0 0.70313,-0.0703 0.98438,-0.21094 0.28125,-0.14063 0.5625,-0.21094 0.70312,-0.28125 2.10937,-0.14063 3.9375,-0.21094 5.625,-0.21094 l 0.49219,0 c 0.70312,0 1.75781,0.14063 3.02344,0.35156 1.26562,0.28125 2.10937,0.35157 2.67187,0.35157 1.33594,0 2.39063,-0.42188 3.23438,-1.33594 0.42187,-0.49219 0.70312,-1.33594 0.70312,-2.46094 0,-1.125 -0.0703,-2.74219 -0.14062,-4.71094 -0.42188,-0.42187 -0.77344,-0.63281 -1.19532,-0.63281 l -2.10937,0.35156 c -0.42188,0 -0.84375,-0.0703 -1.26563,-0.35156 0,-0.42187 0.0703,-1.05469 0.0703,-1.96875 0,-0.91406 0,-1.54687 0.0703,-1.96875 0,-0.42187 0.14062,-0.98438 0.35156,-1.82812 0.14063,-0.84375 0.77344,-1.68751 1.89844,-2.60157 2.03906,-0.14062 4.00781,-0.28125 5.83594,-0.28125 l 5.13281,0.0703 c 1.54687,0 2.8125,0 3.79687,-0.14063 1.40625,0.21094 2.53125,0.77344 3.23438,1.61719 0.14062,0.28125 0.35156,0.63281 0.5625,1.05469 0.14062,0.42187 0.21094,0.77343 0.21094,0.91406 0,0.14062 0.0703,0.84375 0.21093,2.10937 0.0703,1.26563 0.14063,2.25 0.14063,2.95313 0,0.70312 -0.0703,1.125 -0.14063,1.19531 -0.0703,0.0703 -0.14062,0.14063 -0.28125,0.14063 -0.14062,0.0703 -0.28125,0.28125 -0.42187,0.5625 -0.84375,0.21093 -1.54688,0.28125 -2.25,0.28125 -0.70313,0 -1.33594,-0.0703 -1.89844,-0.21094 -0.5625,-0.14063 -0.98437,-0.28125 -1.26562,-0.28125 -0.28125,0 -0.63282,0.28125 -1.05469,0.77344 -1.19531,1.40624 -1.75781,2.88281 -1.75781,4.57031 0,1.6875 0.5625,2.46094 1.75781,2.46094 l 5.90625,0 c 6.96093,0 11.67188,-0.21094 14.0625,-0.77344 0.14062,-0.0703 0.28125,-0.0703 0.5625,-0.0703 0.28125,0.0703 0.49219,0 0.63281,-0.14063 0.5625,-0.63281 0.84375,-1.33594 0.84375,-2.10937 0,-0.77344 -0.28125,-1.61719 -0.84375,-2.60157 -0.5625,-0.98437 -1.61719,-1.75781 -3.30469,-2.32031 -1.68749,-0.49219 -2.74218,-1.125 -3.30468,-1.96875 -1.05469,-2.8125 -2.32032,-7.24219 -3.72657,-13.42969 -1.54687,-6.46874 -2.95312,-11.39063 -4.07812,-14.76562 l -0.91406,-2.95313 c -0.42188,-1.19531 -0.77344,-2.39062 -1.19532,-3.51562 -0.42187,-1.125 -1.26562,-2.8125 -2.67187,-4.92188 -0.98437,-0.49218 -1.89844,-0.77343 -2.8125,-0.77343 -0.98437,0 -2.67188,0.63281 -5.0625,1.89843 -3.51562,6.89062 -6.60938,13.85157 -9.21094,21.02344 l -2.88281,7.80469 -0.63281,2.03906 c -1.26563,4.14843 -2.25,6.75 -2.95313,7.73438 -0.28125,0.28125 -0.70312,0.35156 -1.19531,0.35156 l -2.53125,-0.35156 m 22.07812,-29.95313 c 0.84375,0.49219 1.54688,1.19531 2.03907,2.03906 0.49218,0.84375 0.98437,2.10938 1.40625,3.65625 0.42187,1.54688 0.70312,2.60157 0.98437,3.16407 0.21094,0.5625 0.70313,1.61718 1.40625,3.09375 0.70313,1.54687 1.05469,2.95312 1.05469,4.28906 l 0,0.5625 c -3.9375,0.42187 -6.60938,0.5625 -7.94531,0.5625 -1.33594,0 -2.74219,-0.35157 -4.14844,-1.19531 1.40625,-3.23438 2.53125,-6.60938 3.44531,-10.05469 0.91406,-3.44531 1.47656,-5.48438 1.75781,-6.11719"
         id="path3000"
         style="font-size:72px;font-variant:normal;font-weight:500;font-stretch:normal;font-family:Essays1743;-inkscape-font-specification:Essays1743 Medium" />
      <path
         d="m 508.02589,203.01125 c -0.28125,-3.23438 -1.33594,-5.62501 -3.02343,-7.17188 -2.60156,-2.25 -5.27344,-3.72656 -7.94532,-4.42969 -2.67187,-0.63281 -5.69531,-0.98437 -9.07031,-0.98437 -3.37499,0 -6.75,0.14062 -10.05469,0.28125 -3.37499,0.21094 -6.04687,0.35156 -8.08593,0.35156 -0.91406,0.84375 -1.33594,1.6875 -1.33594,2.53125 0,0.91406 0.21094,1.6875 0.77344,2.25 1.82812,0.42188 3.375,0.5625 4.5,0.5625 1.125,0 1.75781,-0.0703 2.03906,-0.35156 l 0.0703,9.98437 c 0,7.45312 -0.14062,13.28907 -0.35156,17.36719 l -0.21094,12.65625 c -0.49219,0.5625 -0.84375,0.77344 -1.125,0.77344 -0.28125,0 -0.5625,-0.14063 -0.98437,-0.49219 -0.42188,-0.35156 -0.84375,-0.5625 -1.26563,-0.5625 -0.42187,0 -0.84375,0.14063 -1.26562,0.28125 -1.40625,1.19531 -2.10938,2.25 -2.10938,3.09375 0,0.84375 0.28125,1.61719 0.91406,2.25 3.79688,0.63281 6.67969,0.91406 8.78907,0.91406 2.10937,0 4.78125,-0.14062 8.01562,-0.49218 1.47656,-0.14063 2.74219,-0.28125 3.72656,-0.42188 1.125,-0.91406 1.6875,-1.6875 1.6875,-2.39062 0,-0.70313 -0.14062,-1.26563 -0.42187,-1.75782 -0.42188,-0.70312 -0.98438,-1.19531 -1.6875,-1.47656 -0.77344,-0.28125 -1.6875,-0.42187 -2.8125,-0.49219 -1.125,0 -1.96875,-0.14062 -2.60156,-0.42187 -0.35157,-7.24218 -0.5625,-12.44532 -0.5625,-15.60938 1.125,-0.0703 1.89843,-0.14062 2.46093,-0.14062 l 2.88282,0.0703 c 0.5625,0 1.6875,1.26563 3.51562,3.65625 l 6.75,9.42188 c 2.67187,3.86718 4.85157,6.82031 6.53906,8.78906 2.53125,0.98437 4.64063,1.40625 6.25782,1.40625 1.54687,0 3.30469,-0.63282 5.13281,-2.03906 -2.53125,-3.79688 -5.48438,-7.59376 -8.71875,-11.39063 -3.23437,-3.79687 -5.83594,-6.60938 -7.73438,-8.57812 -1.89843,-1.96875 -2.8125,-3.02344 -2.8125,-3.30469 l 0.0703,-0.0703 c 3.37499,-1.47657 6.11719,-3.72657 8.22656,-6.82032 1.26562,-1.89843 1.89844,-3.86719 1.89844,-5.97656 l -0.0703,-1.26562 m -22.64062,-6.75 c 1.40625,-0.42188 2.53125,-0.70313 3.23437,-0.70313 0.70313,0 1.82813,0.28125 3.23438,0.70313 2.53125,0.91406 4.21875,2.17968 5.0625,3.86718 0.84375,1.6875 1.26562,3.23438 1.26562,4.71094 0,1.47656 -0.42187,2.95313 -1.125,4.42969 -0.63281,1.40625 -1.75781,2.46094 -3.44531,3.09375 -0.70312,0.28125 -1.33594,0.5625 -1.89844,0.84375 l -1.33593,0.5625 c -0.91406,0.42187 -1.89844,0.5625 -2.95313,0.5625 -0.70312,0 -1.33594,-0.28125 -2.03906,-0.98438 -0.42188,-3.23437 -0.5625,-5.83594 -0.5625,-7.80468 0,-1.96875 0.14062,-5.06251 0.5625,-9.28125"
         id="path3002"
         style="font-size:72px;font-variant:normal;font-weight:500;font-stretch:normal;font-family:Essays1743;-inkscape-font-specification:Essays1743 Medium" />
      <path
         d="m 524.33839,223.12062 c 0,3.72656 0.0703,8.01563 0.28125,12.9375 -0.28125,0.42188 -0.77343,0.5625 -1.40625,0.5625 l -1.26562,-0.0703 c -0.77344,0 -1.26563,0.21094 -1.47656,0.63281 -0.28125,0.42188 -0.35157,0.77344 -0.35157,1.05469 0,0.35156 0.14063,0.84375 0.42188,1.54687 0.28125,0.70313 0.42187,1.26563 0.49219,1.61719 l 3.375,0.0703 c 1.82812,0 3.72656,-0.0703 5.625,-0.28125 1.89843,-0.14062 3.72656,-0.28125 5.41406,-0.35156 0,-0.35156 0.14062,-0.84375 0.42187,-1.54687 0.21094,-0.70313 0.35157,-1.19532 0.35157,-1.61719 0,-1.33594 -0.98438,-2.32031 -2.88282,-2.88281 -1.40624,-0.42188 -2.32031,-1.05469 -2.67187,-1.75782 l 0,-3.44531 0.21094,-13.5 c 0,-4.78124 -0.35157,-10.68751 -1.05469,-17.85937 3.02343,5.90624 5.27344,10.6875 6.75,14.34375 1.47656,3.65624 3.02344,7.80469 4.57031,12.58593 1.54688,4.78125 3.23438,9.42188 5.0625,13.99219 1.19531,1.61719 2.32032,2.39063 3.30469,2.39063 l 0.35156,0 c 0.42188,0 0.77344,-0.14063 1.05469,-0.5625 0.0703,-0.14063 0.21094,-0.28125 0.35156,-0.5625 0.14063,-0.28125 0.70313,-1.54688 1.75781,-3.86719 0.98438,-2.32031 2.81251,-7.17188 5.48438,-14.55469 2.60156,-7.3828 5.48438,-14.55469 8.71875,-21.58594 l 0,4.00782 0.42187,20.25 c 0,3.23437 -0.21093,6.60937 -0.63281,9.98437 -0.42187,0.49219 -0.98437,0.70313 -1.82812,0.70313 l -1.40625,0 c -1.82813,0 -2.67188,0.91406 -2.67188,2.74218 l 0.14063,2.53125 0,0.63282 7.80468,0.49218 c 1.54688,0 3.58594,-0.14062 5.97657,-0.49218 l 0.5625,-4.14844 c 0,-1.61719 -0.84375,-2.46094 -2.39063,-2.67188 -0.91406,-0.0703 -1.47656,-0.28125 -1.75781,-0.70312 -0.14063,-3.72656 -0.14063,-6.67969 -0.14063,-8.78906 0,-2.10938 0.21094,-11.17971 0.70313,-27.28125 0,-0.84375 0.5625,-1.33594 1.75781,-1.33594 l 1.96875,0.14062 c 0.84375,0 1.26563,-0.28125 1.26563,-0.91406 l 0,-0.0703 c 0.5625,-0.42188 0.91406,-0.98438 0.91406,-1.75781 0,-0.77344 -0.42188,-1.68751 -1.26563,-2.67188 -2.60156,-0.84375 -4.35937,-1.33594 -5.20312,-1.33594 -0.84375,0 -1.96875,0.42188 -3.23438,1.125 l -18.35156,35.57813 c -2.8125,-5.27343 -4.64062,-9.14063 -5.625,-11.67188 -0.98437,-2.46093 -2.10937,-5.48438 -3.23437,-9.14062 -1.19531,-3.65625 -2.88282,-8.08594 -4.99219,-13.42969 -3.44531,-0.91406 -5.97656,-1.40625 -7.59375,-1.40625 -1.61719,0 -3.51563,0.28125 -5.76563,0.84375 -1.96874,0.98437 -2.88281,1.96875 -2.88281,3.02344 0,0.28125 0,0.42187 0.0703,0.5625 0.21094,0.70312 0.98438,1.05469 2.25,1.05469 1.26563,0 2.10938,0.28125 2.53125,0.77343 l -0.28125,26.08594"
         id="path3004"
         style="font-size:72px;font-variant:normal;font-weight:500;font-stretch:normal;font-family:Essays1743;-inkscape-font-specification:Essays1743 Medium" />
    </g>
  </g>
</svg>
